<svg width="120" height="120" viewBox="0 0 120 120" fill="none" xmlns="http://www.w3.org/2000/svg">
  <defs>
    <linearGradient id="bgGrad" x1="0%" y1="0%" x2="100%" y2="100%">
      <stop offset="0%" style="stop-color:#8B5CF6;stop-opacity:1" />
      <stop offset="50%" style="stop-color:#EC4899;stop-opacity:1" />
      <stop offset="100%" style="stop-color:#6366F1;stop-opacity:1" />
    </linearGradient>
    
    <linearGradient id="iconGrad" x1="0%" y1="0%" x2="100%" y2="100%">
      <stop offset="0%" style="stop-color:#C084FC;stop-opacity:1" />
      <stop offset="100%" style="stop-color:#F0ABFC;stop-opacity:1" />
    </linearGradient>
  </defs>
  
  <!-- Background -->
  <rect width="120" height="120" rx="28" fill="url(#bgGrad)"/>
  
  <!-- Shield Icon -->
  <g transform="translate(60, 60)">
    <!-- Outer Shield -->
    <path d="M 0,-36 L 24,-27 L 24,0 C 24,18 12,30 0,36 C -12,30 -24,18 -24,0 L -24,-27 Z" 
          fill="white" 
          opacity="0.2"/>
    
    <!-- Inner Shield -->
    <path d="M 0,-30 L 18,-22.5 L 18,0 C 18,13.5 9,22.5 0,27 C -9,22.5 -18,13.5 -18,0 L -18,-22.5 Z" 
          fill="white" 
          opacity="0.9"/>
    
    <!-- Lock Symbol -->
    <circle cx="0" cy="-3" r="5" fill="url(#iconGrad)"/>
    <rect x="-7" y="-3" width="14" height="12" rx="2" fill="url(#iconGrad)"/>
    <circle cx="0" cy="3" r="2.5" fill="white"/>
    <rect x="-1" y="3" width="2" height="5" rx="1" fill="white"/>
  </g>
</svg>

